<?xml version="1.0" encoding="UTF-8"?>
<svg version="1.1" xmlns="http://www.w3.org/2000/svg" width="512" height="512">
<path d="M0 0 C0.9796875 0.74765625 1.959375 1.4953125 2.96875 2.265625 C13.67963566 10.77132832 24.49314805 20.24605508 33 31 C34.12921875 32.40765625 34.12921875 32.40765625 35.28125 33.84375 C55.08756713 58.85470344 73.34894081 90.40358427 77.32397461 122.6262207 C77.77376185 125.09507132 77.77376185 125.09507132 79.71142578 126.3269043 C80.4486084 126.65601807 81.18579102 126.98513184 81.9453125 127.32421875 C83.17906616 127.89958374 83.17906616 127.89958374 84.43774414 128.48657227 C85.32453857 128.88287842 86.21133301 129.27918457 87.125 129.6875 C100.76177774 136.14075907 112.61855264 144.07643818 124 154 C124.49097168 154.42394043 124.98194336 154.84788086 125.48779297 155.28466797 C132.79517041 161.62792584 139.09335029 168.30083867 145 176 C145.71542969 176.88816406 146.43085938 177.77632812 147.16796875 178.69140625 C162.52081065 198.22891656 172.42798648 220.87620501 178 245 C178.16371094 245.67095703 178.32742188 246.34191406 178.49609375 247.03320312 C184.46726059 272.47234778 182.0230306 300.37134 176.67578125 325.61767578 C175.48728795 331.56615345 174.6220991 337.56084255 173.75 343.5625 C173.58725586 344.65062988 173.42451172 345.73875977 173.25683594 346.85986328 C171.64409816 357.88366214 170.86228092 368.68586719 170.83133507 379.83217812 C170.82404067 381.91410879 170.80828923 383.99582074 170.78999329 386.0776825 C170.73807448 391.9877148 170.68948656 397.89760494 170.67407227 403.80786133 C170.66397231 407.44531838 170.63462535 411.08218756 170.59275246 414.71941185 C170.58049457 416.09599548 170.57531164 417.4726621 170.57755089 418.84929848 C170.59414543 432.35855828 170.59414543 432.35855828 166 437 C162.23749563 439.68211754 159.67558931 440.37556458 155.07763672 440.38476562 C153.90385468 440.39487671 152.73007263 440.40498779 151.52072144 440.41540527 C150.25318024 440.41238403 148.98563904 440.40936279 147.6796875 440.40625 C146.33902743 440.41551119 144.99837825 440.42649132 143.65774536 440.43908691 C139.39684481 440.47579475 135.13603492 440.48948131 130.875 440.5 C105.13063792 440.56484726 79.98229253 441.79813563 54.6875 447.0625 C7.06013044 456.47281349 -40.81952505 451.29819737 -82.03759766 424.13745117 C-87.99726342 420.10566701 -93.60535739 415.76567082 -99 411 C-99.73210693 410.35828857 -99.73210693 410.35828857 -100.47900391 409.70361328 C-110.37714382 400.99136778 -118.91092505 391.75216914 -126.5625 381 C-127.10003906 380.24509277 -127.63757813 379.49018555 -128.19140625 378.71240234 C-128.68640625 378.00293457 -129.18140625 377.2934668 -129.69140625 376.5625 C-130.13685791 375.92441406 -130.58230957 375.28632813 -131.04125977 374.62890625 C-132 373 -132 373 -132 371 C-132.91531494 371.01957764 -132.91531494 371.01957764 -133.84912109 371.03955078 C-139.87737144 371.11229159 -145.66060074 370.72436607 -151.625 369.875 C-152.54740479 369.74738281 -153.46980957 369.61976563 -154.42016602 369.48828125 C-163.6714257 368.15020509 -172.83467583 366.36706158 -182.01098633 364.60092163 C-190.85418588 362.90388816 -199.6916821 361.344387 -208.625 360.1875 C-209.48085693 360.07599609 -210.33671387 359.96449219 -211.21850586 359.84960938 C-223.39847842 358.36045864 -235.55912647 357.85742454 -247.81613159 357.80076981 C-250.18812672 357.78874241 -252.55995835 357.76924625 -254.93188477 357.74765015 C-261.66368198 357.6867485 -268.39544485 357.63181273 -275.12744141 357.59863281 C-279.27399684 357.57766603 -283.42022265 357.54238092 -287.56658936 357.49787521 C-289.13576386 357.48376951 -290.70499629 357.4750051 -292.27423096 357.47182083 C-294.46312101 357.46689913 -296.65113304 357.44372132 -298.83984375 357.41650391 C-300.08113037 357.40841705 -301.32241699 357.4003302 -302.60131836 357.39199829 C-307.66254534 356.80824478 -310.90760788 355.21048856 -314.3125 351.4375 C-316.88280866 347.72483193 -317.13330202 345.76725399 -317.17358398 341.26635742 C-317.18707382 340.05876266 -317.20056366 338.85116791 -317.21446228 337.60697937 C-317.21952223 336.95695135 -317.22458218 336.30692333 -317.22979546 335.63719749 C-317.2463391 333.57488364 -317.26960663 331.51274238 -317.29469299 329.45051575 C-317.36491897 323.58339317 -317.42401983 317.71618101 -317.47680664 311.84887695 C-317.81197787 275.56796836 -321.02357084 240.449087 -327.98144531 204.7956543 C-328.22862305 203.51988525 -328.47580078 202.24411621 -328.73046875 200.9296875 C-328.95114014 199.80804199 -329.17181152 198.68639648 -329.39916992 197.53076172 C-330.61506849 190.38556665 -331.16133421 183.35234647 -331.203125 176.109375 C-331.21013931 175.29078003 -331.21715363 174.47218506 -331.22438049 173.62878418 C-331.24178167 171.00246613 -331.24823247 168.37637358 -331.25 165.75 C-331.25067474 164.85261108 -331.25134949 163.95522217 -331.25204468 163.03063965 C-331.23622668 149.80206513 -330.85154663 136.96688669 -328 124 C-327.82839355 123.18837402 -327.65678711 122.37674805 -327.47998047 121.54052734 C-319.41427512 84.21051125 -302.06545743 50.00125338 -275.42724609 22.47851562 C-273.94358254 20.94155591 -272.48227723 19.38498235 -271.01953125 17.828125 C-258.41726353 4.61933103 -243.72841331 -5.82811461 -228 -15 C-227.41105957 -15.34869141 -226.82211914 -15.69738281 -226.21533203 -16.05664062 C-156.55744237 -56.88721086 -63.44112239 -48.51788244 0 0 Z " fill="#48D0F8" transform="translate(331,51)"/>
<path d="M0 0 C5.13520288 0.41041582 9.47268534 3.06666431 13.9375 5.4375 C15.19904907 6.10640259 15.19904907 6.10640259 16.48608398 6.78881836 C27.26536261 12.62567325 36.81584311 19.55426239 45.78125 27.9375 C47.75737093 29.77445749 49.78954621 31.47811165 51.875 33.1875 C62.45466255 42.46603469 70.61989446 54.12115023 78 66 C78.69867188 67.10730469 79.39734375 68.21460938 80.1171875 69.35546875 C89.15204952 84.3491211 95.0707623 100.9885329 99 118 C99.16371094 118.67095703 99.32742188 119.34191406 99.49609375 120.03320312 C105.46726059 145.47234778 103.0230306 173.37134 97.67578125 198.61767578 C96.48728795 204.56615345 95.6220991 210.56084255 94.75 216.5625 C94.58725586 217.65062988 94.42451172 218.73875977 94.25683594 219.85986328 C92.64409816 230.88366214 91.86228092 241.68586719 91.83133507 252.83217812 C91.82404067 254.91410879 91.80828923 256.99582074 91.78999329 259.0776825 C91.73807448 264.9877148 91.68948656 270.89760494 91.67407227 276.80786133 C91.66397231 280.44531838 91.63462535 284.08218756 91.59275246 287.71941185 C91.58049457 289.09599548 91.57531164 290.4726621 91.57755089 291.84929848 C91.59414543 305.35855828 91.59414543 305.35855828 87 310 C83.23749563 312.68211754 80.67558931 313.37556458 76.07763672 313.38476562 C74.90385468 313.39487671 73.73007263 313.40498779 72.52072144 313.41540527 C71.25318024 313.41238403 69.98563904 313.40936279 68.6796875 313.40625 C67.33902743 313.41551119 65.99837825 313.42649132 64.65774536 313.43908691 C60.39684481 313.47579475 56.13603492 313.48948131 51.875 313.5 C26.13063792 313.56484726 0.98229253 314.79813563 -24.3125 320.0625 C-71.93986956 329.47281349 -119.81952505 324.29819737 -161.03759766 297.13745117 C-166.99726342 293.10566701 -172.60535739 288.76567082 -178 284 C-178.73210693 283.35828857 -178.73210693 283.35828857 -179.47900391 282.70361328 C-189.37714382 273.99136778 -197.91092505 264.75216914 -205.5625 254 C-206.10003906 253.24509277 -206.63757813 252.49018555 -207.19140625 251.71240234 C-207.68640625 251.00293457 -208.18140625 250.2934668 -208.69140625 249.5625 C-209.13685791 248.92441406 -209.58230957 248.28632813 -210.04125977 247.62890625 C-211 246 -211 246 -211 244 C-210.12770752 243.97812622 -210.12770752 243.97812622 -209.23779297 243.95581055 C-149.93483464 242.31398535 -95.91716132 222.33783274 -54.06640625 179.25390625 C-50.16432697 174.99776307 -46.54538186 170.55584489 -43 166 C-42.57992676 165.46697266 -42.15985352 164.93394531 -41.72705078 164.38476562 C-22.59484444 139.95342761 -10.16940307 111.81908927 -3.1875 81.6875 C-2.99269043 80.85395996 -2.79788086 80.02041992 -2.59716797 79.16162109 C0.38569371 65.57186095 1.34587416 52.12025464 1.25 38.25 C1.24855988 37.51685577 1.24711975 36.78371155 1.24563599 36.02835083 C1.22112397 25.35895228 0.7115312 14.86903344 -0.66015625 4.27734375 C-0.82837891 2.65505859 -0.82837891 2.65505859 -1 1 C-0.67 0.67 -0.34 0.34 0 0 Z " fill="#82E5B4" transform="translate(410,178)"/>
<path d="M0 0 C7.70117659 5.2427763 12.94834741 12.86082026 15 22 C16.02547666 30.75599301 14.19686774 39.22273941 9.26953125 46.5859375 C3.27569374 53.78811351 -3.86268506 58.41725014 -13.25 59.30859375 C-23.40899503 59.6578092 -31.20960602 57.99061581 -39.12109375 51.171875 C-44.80899628 45.15370716 -49.22432552 37.97656469 -49.5 29.5625 C-48.93112967 18.96354744 -46.04116409 10.50333788 -38.11328125 3.28125 C-27.08947725 -5.55511942 -12.48684174 -7.34009132 0 0 Z " fill="#FDFEFE" transform="translate(126,199)"/>
<path d="M0 0 C6.48091634 5.29185566 9.8704925 11.45132125 12.48828125 19.3046875 C13.38995776 28.88315268 12.18375128 37.15716637 6.5 45.07421875 C0.29191285 52.39740272 -6.07829185 56.69382124 -15.76171875 57.61328125 C-25.96317419 57.96395628 -33.68513384 56.24461819 -41.66796875 49.4765625 C-48.25707658 42.60825518 -50.71772284 35.22204039 -51.01171875 25.8046875 C-50.74109703 16.85612931 -48.52321801 9.53332029 -42.3515625 2.90625 C-30.16129316 -7.70523711 -13.58653368 -9.17038199 0 0 Z " fill="#FDFEFE" transform="translate(218.51171875,200.6953125)"/>
<path d="M0 0 C8.08138654 4.64435 13.8501474 11.04275522 16.94140625 19.890625 C19.177101 29.5083307 17.48730922 38.05035954 12.9375 46.625 C7.41342045 53.45741418 1.48004815 59.17292744 -7.4375 60.5625 C-15.95029257 61.34358085 -23.07823459 61.1371785 -30.4375 56.5625 C-31.14648438 56.12679687 -31.85546875 55.69109375 -32.5859375 55.2421875 C-39.05644184 50.84032024 -43.00818885 44.97885518 -45.4375 37.5625 C-46.26684774 28.0411571 -46.36686007 18.8330189 -40.48046875 10.9375 C-36.25936812 5.99011118 -32.34406114 2.28860514 -26.4375 -0.4375 C-25.69113281 -0.788125 -24.94476563 -1.13875 -24.17578125 -1.5 C-16.39756131 -4.16301396 -7.38721463 -3.39285557 0 0 Z " fill="#FEFEFE" transform="translate(303.4375,197.4375)"/>
</svg>
